<svg width="613" height="190" viewBox="0 0 613 190" fill="none" xmlns="http://www.w3.org/2000/svg">
<mask id="mask0_10_8" style="mask-type:alpha" maskUnits="userSpaceOnUse" x="14" y="36" width="162" height="118">
<path fill-rule="evenodd" clip-rule="evenodd" d="M14.25 153.074L79.0747 110.433L90.7997 129.517L119.309 97.5287L175.75 136.811L101.227 36.9263L14.25 153.074Z" fill="black"/>
</mask>
<g mask="url(#mask0_10_8)">
<rect x="1.59665" y="1.59662" width="188.403" height="188.403" fill="white"/>
</g>
<path d="M239.76 149.56C229.52 149.56 220.56 147.48 212.88 143.32C205.307 139.16 199.653 133.08 195.92 125.08L220.56 112.76C222.053 116.067 224.347 118.52 227.44 120.12C230.64 121.613 234.747 122.36 239.76 122.36C242.427 122.36 244.773 122.093 246.8 121.56C248.827 121.027 250.427 120.227 251.6 119.16C252.88 117.987 253.52 116.547 253.52 114.84C253.52 112.707 252.827 111.107 251.44 110.04C250.16 108.973 248.293 108.173 245.84 107.64C243.493 107 240.667 106.467 237.36 106.04C233.307 105.4 228.987 104.493 224.4 103.32C219.813 102.04 215.44 100.173 211.28 97.72C207.227 95.16 203.92 91.8 201.36 87.64C198.8 83.3733 197.52 78.04 197.52 71.64C197.52 65.0267 199.333 59.1067 202.96 53.88C206.587 48.5467 211.547 44.3333 217.84 41.24C224.133 38.1467 231.28 36.6 239.28 36.6C248.773 36.6 257.253 38.68 264.72 42.84C272.293 47 277.893 53.08 281.52 61.08L256.88 73.4C255.387 70.7333 253.093 68.4933 250 66.68C247.013 64.76 243.013 63.8 238 63.8C235.653 63.8 233.68 64.0667 232.08 64.6C230.48 65.0267 229.253 65.7733 228.4 66.84C227.547 67.8 227.12 69.0267 227.12 70.52C227.12 72.5467 227.867 74.2 229.36 75.48C230.853 76.6533 232.88 77.6133 235.44 78.36C238.107 79 241.2 79.5867 244.72 80.12C248.773 80.76 252.987 81.72 257.36 83C261.84 84.1733 266 86.04 269.84 88.6C273.787 91.0533 276.987 94.36 279.44 98.52C281.893 102.68 283.12 108.013 283.12 114.52C283.12 121.133 281.147 127.107 277.2 132.44C273.36 137.667 268.133 141.827 261.52 144.92C255.013 148.013 247.76 149.56 239.76 149.56ZM329.219 147H300.419V30.2H329.219V88.6H315.779C315.779 84.44 317.219 80.5467 320.099 76.92C323.085 73.1867 327.032 70.2 331.939 67.96C336.952 65.72 342.445 64.6 348.419 64.6C356.845 64.6 363.832 66.2533 369.379 69.56C374.925 72.76 379.085 77.4 381.859 83.48C384.632 89.56 386.019 96.92 386.019 105.56V147L357.219 146.84V108.6C357.219 105.613 356.685 102.84 355.619 100.28C354.659 97.72 353.165 95.64 351.139 94.04C349.112 92.44 346.659 91.64 343.779 91.64C340.792 91.64 338.179 92.3867 335.939 93.88C333.805 95.2667 332.152 97.24 330.979 99.8C329.805 102.36 329.219 105.293 329.219 108.6V147ZM405.263 67H434.062V147H405.263V67ZM419.663 58.52C416.569 58.52 413.689 57.7733 411.023 56.28C408.356 54.68 406.223 52.5467 404.622 49.88C403.129 47.2133 402.383 44.3333 402.383 41.24C402.383 38.04 403.129 35.16 404.622 32.6C406.223 29.9333 408.356 27.8533 411.023 26.36C413.689 24.76 416.569 23.96 419.663 23.96C422.863 23.96 425.743 24.76 428.303 26.36C430.969 27.8533 433.049 29.9333 434.543 32.6C436.143 35.16 436.943 38.04 436.943 41.24C436.943 44.3333 436.143 47.2133 434.543 49.88C433.049 52.5467 430.969 54.68 428.303 56.28C425.743 57.7733 422.863 58.52 419.663 58.52ZM482.113 147H453.313V102.68C453.313 95.5333 454.699 89.08 457.473 83.32C460.246 77.56 464.459 72.9733 470.113 69.56C475.766 66.1467 482.913 64.44 491.553 64.44C494.326 64.44 497.046 64.7067 499.713 65.24C502.486 65.6667 504.886 66.3067 506.913 67.16V94.84C504.993 93.7733 502.913 92.9733 500.673 92.44C498.433 91.9067 496.299 91.64 494.273 91.64C490.539 91.64 487.553 92.7067 485.312 94.84C483.179 96.8667 482.113 99.8 482.113 103.64V147ZM559.418 121.4C562.511 121.4 565.018 120.547 566.938 118.84C568.964 117.133 570.404 114.893 571.258 112.12C572.218 109.24 572.698 106.147 572.698 102.84V67H601.498V106.36C601.498 114.147 599.951 121.347 596.858 127.96C593.764 134.467 589.124 139.693 582.938 143.64C576.751 147.48 568.911 149.4 559.418 149.4C550.031 149.4 542.191 147.48 535.898 143.64C529.711 139.693 525.071 134.467 521.978 127.96C518.884 121.347 517.338 114.147 517.338 106.36V67H546.138V102.84C546.138 106.147 546.564 109.24 547.418 112.12C548.378 114.893 549.818 117.133 551.738 118.84C553.764 120.547 556.324 121.4 559.418 121.4Z" fill="white"/>
</svg>
